HIERARCHY
ROOT Hips
{
  OFFSET -206.879 90.9677 1184.07
  CHANNELS 6 Xposition Yposition Zposition Zrotation Xrotation Yrotation
  JOINT Spine
  {
    OFFSET 0 8 0
    CHANNELS 6 Xposition Yposition Zposition Zrotation Xrotation Yrotation
    JOINT Spine1
    {
      OFFSET 0 8 0
      CHANNELS 6 Xposition Yposition Zposition Zrotation Xrotation Yrotation
      JOINT Spine2
      {
        OFFSET 0 8 0
        CHANNELS 6 Xposition Yposition Zposition Zrotation Xrotation Yrotation
        JOINT Spine3
        {
          OFFSET 0 8 0
          CHANNELS 6 Xposition Yposition Zposition Zrotation Xrotation Yrotation
          JOINT Neck
          {
            OFFSET 0 17 0
            CHANNELS 6 Xposition Yposition Zposition Zrotation Xrotation Yrotation
            JOINT Head
            {
              OFFSET 0 10.8 0
              CHANNELS 6 Xposition Yposition Zposition Zrotation Xrotation Yrotation
              End Site
              {
                OFFSET 0 20.25 0
              }
            }
          }
          JOINT LeftShoulder
          {
            OFFSET 5 17 0
            CHANNELS 6 Xposition Yposition Zposition Zrotation Xrotation Yrotation
            JOINT LeftShoulder2
            {
              OFFSET 6.45 0 0
              CHANNELS 6 Xposition Yposition Zposition Zrotation Xrotation Yrotation
              JOINT LeftArm
              {
                OFFSET 6.45 0 0
                CHANNELS 6 Xposition Yposition Zposition Zrotation Xrotation Yrotation
                JOINT LeftForeArm
                {
                  OFFSET 0 -32.4 -2
                  CHANNELS 6 Xposition Yposition Zposition Zrotation Xrotation Yrotation
                  JOINT LeftHand
                  {
                    OFFSET 0 -25.65 2
                    CHANNELS 6 Xposition Yposition Zposition Zrotation Xrotation Yrotation
                    JOINT LeftHandThumb1
                    {
                      OFFSET -0.5 -1.5 2.65
                      CHANNELS 6 Xposition Yposition Zposition Zrotation Xrotation Yrotation
                      JOINT LeftHandThumb2
                      {
                        OFFSET 0 -3.8 3.7
                        CHANNELS 6 Xposition Yposition Zposition Zrotation Xrotation Yrotation
                        JOINT LeftHandThumb3
                        {
                          OFFSET 0 -3 2.7
                          CHANNELS 6 Xposition Yposition Zposition Zrotation Xrotation Yrotation
                          End Site
                          {
                            OFFSET 0 -2.3 1.8
                          }
                        }
                      }
                    }
                    JOINT LeftHandIndex
                    {
                      OFFSET 0 -1.9 1.6
                      CHANNELS 6 Xposition Yposition Zposition Zrotation Xrotation Yrotation
                      JOINT LeftHandIndex1
                      {
                        OFFSET 0 -8.3 1.9
                        CHANNELS 6 Xposition Yposition Zposition Zrotation Xrotation Yrotation
                        JOINT LeftHandIndex2
                        {
                          OFFSET 0 -4.5 0
                          CHANNELS 6 Xposition Yposition Zposition Zrotation Xrotation Yrotation
                          JOINT LeftHandIndex3
                          {
                            OFFSET 0 -3.4 0
                            CHANNELS 6 Xposition Yposition Zposition Zrotation Xrotation Yrotation
                            End Site
                            {
                              OFFSET 0 -2.6 0
                            }
                          }
                        }
                      }
                    }
                    JOINT LeftHandMiddle
                    {
                      OFFSET -0.25 -2.2 0.4
                      CHANNELS 6 Xposition Yposition Zposition Zrotation Xrotation Yrotation
                      JOINT LeftHandMiddle1
                      {
                        OFFSET 0 -8.3 1
                        CHANNELS 6 Xposition Yposition Zposition Zrotation Xrotation Yrotation
                        JOINT LeftHandMiddle2
                        {
                          OFFSET 0 -4.65 0
                          CHANNELS 6 Xposition Yposition Zposition Zrotation Xrotation Yrotation
                          JOINT LeftHandMiddle3
                          {
                            OFFSET 0 -3.3 0
                            CHANNELS 6 Xposition Yposition Zposition Zrotation Xrotation Yrotation
                            End Site
                            {
                              OFFSET 0 -2.7 0
                            }
                          }
                        }
                      }
                    }
                    JOINT LeftHandRing
                    {
                      OFFSET -0.5 -2.15 -0.8
                      CHANNELS 6 Xposition Yposition Zposition Zrotation Xrotation Yrotation
                      JOINT LeftHandRing1
                      {
                        OFFSET 0 -7.75 -0.2
                        CHANNELS 6 Xposition Yposition Zposition Zrotation Xrotation Yrotation
                        JOINT LeftHandRing2
                        {
                          OFFSET 0 -3.8 0
                          CHANNELS 6 Xposition Yposition Zposition Zrotation Xrotation Yrotation
                          JOINT LeftHandRing3
                          {
                            OFFSET 0 -3.4 0
                            CHANNELS 6 Xposition Yposition Zposition Zrotation Xrotation Yrotation
                            End Site
                            {
                              OFFSET 0 -2.6 0
                            }
                          }
                        }
                      }
                    }
                    JOINT LeftHandPinky
                    {
                      OFFSET -0.75 -1.75 -1.85
                      CHANNELS 6 Xposition Yposition Zposition Zrotation Xrotation Yrotation
                      JOINT LeftHandPinky1
                      {
                        OFFSET 0 -7.15 -1
                        CHANNELS 6 Xposition Yposition Zposition Zrotation Xrotation Yrotation
                        JOINT LeftHandPinky2
                        {
                          OFFSET 0 -3 0
                          CHANNELS 6 Xposition Yposition Zposition Zrotation Xrotation Yrotation
                          JOINT LeftHandPinky3
                          {
                            OFFSET 0 -2.35 0
                            CHANNELS 6 Xposition Yposition Zposition Zrotation Xrotation Yrotation
                            End Site
                            {
                              OFFSET 0 -2.1 0
                            }
                          }
                        }
                      }
                    }
                  }
                }
              }
            }
          }
          JOINT RightShoulder
          {
            OFFSET -5 17 0
            CHANNELS 6 Xposition Yposition Zposition Zrotation Xrotation Yrotation
            JOINT RightShoulder2
            {
              OFFSET -6.45 0 0
              CHANNELS 6 Xposition Yposition Zposition Zrotation Xrotation Yrotation
              JOINT RightArm
              {
                OFFSET -6.45 0 0
                CHANNELS 6 Xposition Yposition Zposition Zrotation Xrotation Yrotation
                JOINT RightForeArm
                {
                  OFFSET 0 -32.4 -2
                  CHANNELS 6 Xposition Yposition Zposition Zrotation Xrotation Yrotation
                  JOINT RightHand
                  {
                    OFFSET 0 -25.65 2
                    CHANNELS 6 Xposition Yposition Zposition Zrotation Xrotation Yrotation
                    JOINT RightHandThumb1
                    {
                      OFFSET 0.5 -1.5 2.65
                      CHANNELS 6 Xposition Yposition Zposition Zrotation Xrotation Yrotation
                      JOINT RightHandThumb2
                      {
                        OFFSET 0 -3.8 3.7
                        CHANNELS 6 Xposition Yposition Zposition Zrotation Xrotation Yrotation
                        JOINT RightHandThumb3
                        {
                          OFFSET 0 -3 2.7
                          CHANNELS 6 Xposition Yposition Zposition Zrotation Xrotation Yrotation
                          End Site
                          {
                            OFFSET 0 -2.3 1.8
                          }
                        }
                      }
                    }
                    JOINT RightHandIndex
                    {
                      OFFSET 0 -1.9 1.6
                      CHANNELS 6 Xposition Yposition Zposition Zrotation Xrotation Yrotation
                      JOINT RightHandIndex1
                      {
                        OFFSET 0 -8.3 1.9
                        CHANNELS 6 Xposition Yposition Zposition Zrotation Xrotation Yrotation
                        JOINT RightHandIndex2
                        {
                          OFFSET 0 -4.5 0
                          CHANNELS 6 Xposition Yposition Zposition Zrotation Xrotation Yrotation
                          JOINT RightHandIndex3
                          {
                            OFFSET 0 -3.4 0
                            CHANNELS 6 Xposition Yposition Zposition Zrotation Xrotation Yrotation
                            End Site
                            {
                              OFFSET 0 -2.6 0
                            }
                          }
                        }
                      }
                    }
                    JOINT RightHandMiddle
                    {
                      OFFSET 0.25 -2.2 0.4
                      CHANNELS 6 Xposition Yposition Zposition Zrotation Xrotation Yrotation
                      JOINT RightHandMiddle1
                      {
                        OFFSET 0 -8.3 1
                        CHANNELS 6 Xposition Yposition Zposition Zrotation Xrotation Yrotation
                        JOINT RightHandMiddle2
                        {
                          OFFSET 0 -4.65 0
                          CHANNELS 6 Xposition Yposition Zposition Zrotation Xrotation Yrotation
                          JOINT RightHandMiddle3
                          {
                            OFFSET 0 -3.3 0
                            CHANNELS 6 Xposition Yposition Zposition Zrotation Xrotation Yrotation
                            End Site
                            {
                              OFFSET 0 -2.7 0
                            }
                          }
                        }
                      }
                    }
                    JOINT RightHandRing
                    {
                      OFFSET 0.5 -2.15 -0.8
                      CHANNELS 6 Xposition Yposition Zposition Zrotation Xrotation Yrotation
                      JOINT RightHandRing1
                      {
                        OFFSET 0 -7.75 -0.2
                        CHANNELS 6 Xposition Yposition Zposition Zrotation Xrotation Yrotation
                        JOINT RightHandRing2
                        {
                          OFFSET 0 -3.8 0
                          CHANNELS 6 Xposition Yposition Zposition Zrotation Xrotation Yrotation
                          JOINT RightHandRing3
                          {
                            OFFSET 0 -3.4 0
                            CHANNELS 6 Xposition Yposition Zposition Zrotation Xrotation Yrotation
                            End Site
                            {
                              OFFSET 0 -2.6 0
                            }
                          }
                        }
                      }
                    }
                    JOINT RightHandPinky
                    {
                      OFFSET 0.75 -1.75 -1.85
                      CHANNELS 6 Xposition Yposition Zposition Zrotation Xrotation Yrotation
                      JOINT RightHandPinky1
                      {
                        OFFSET 0 -7.15 -1
                        CHANNELS 6 Xposition Yposition Zposition Zrotation Xrotation Yrotation
                        JOINT RightHandPinky2
                        {
                          OFFSET 0 -3 0
                          CHANNELS 6 Xposition Yposition Zposition Zrotation Xrotation Yrotation
                          JOINT RightHandPinky3
                          {
                            OFFSET 0 -2.35 0
                            CHANNELS 6 Xposition Yposition Zposition Zrotation Xrotation Yrotation
                            End Site
                            {
                              OFFSET 0 -2.1 0
                            }
                          }
                        }
                      }
                    }
                  }
                }
              }
            }
          }
        }
      }
    }
  }
  JOINT LeftUpLeg
  {
    OFFSET 8 0 0
    CHANNELS 6 Xposition Yposition Zposition Zrotation Xrotation Yrotation
    JOINT LeftLeg
    {
      OFFSET 0 -45 -1
      CHANNELS 6 Xposition Yposition Zposition Zrotation Xrotation Yrotation
      JOINT LeftFoot
      {
        OFFSET 0 -41 -2
        CHANNELS 6 Xposition Yposition Zposition Zrotation Xrotation Yrotation
        JOINT LeftToeBase
        {
          OFFSET 0 -7.5 12.5
          CHANNELS 6 Xposition Yposition Zposition Zrotation Xrotation Yrotation
          JOINT LeftFootToe
          {
            OFFSET 0 0 4
            CHANNELS 6 Xposition Yposition Zposition Zrotation Xrotation Yrotation
            End Site
            {
              OFFSET 0 0 0
            }
          }
        }
      }
    }
  }
  JOINT RightUpLeg
  {
    OFFSET -8 0 0
    CHANNELS 6 Xposition Yposition Zposition Zrotation Xrotation Yrotation
    JOINT RightLeg
    {
      OFFSET 0 -45 -1
      CHANNELS 6 Xposition Yposition Zposition Zrotation Xrotation Yrotation
      JOINT RightFoot
      {
        OFFSET 0 -41 -2
        CHANNELS 6 Xposition Yposition Zposition Zrotation Xrotation Yrotation
        JOINT RightToeBase
        {
          OFFSET 0 -7.5 12.5
          CHANNELS 6 Xposition Yposition Zposition Zrotation Xrotation Yrotation
          JOINT RightFootToe
          {
            OFFSET 0 0 4
            CHANNELS 6 Xposition Yposition Zposition Zrotation Xrotation Yrotation
            End Site
            {
              OFFSET 0 0 0
            }
          }
        }
      }
    }
  }
}
MOTION
Frames:	3
Frame Time:	0.0111111
-208.868 91.0992 1172.95 -12.9668 -13.56 127.784 0 8 0 2.02775 23.4727 14.3882 0 8 0 0.20347 9.73253 2.52187 1.13687e-13 8 -1.13687e-13 0.155175 4.87418 1.26526 0 8 0 0.154782 4.8554 1.26039 0 17 -1.13687e-13 2.23419 -0.87814 2.03618 -1.13687e-13 10.8 1.13687e-13 5.26318 -1.92417 4.80527 5 17 0 -18.3344 -5.22408 17.0943 6.45 1.13687e-13 0 -1.47949 0.257485 2.12987 6.45 -1.13687e-13 -1.13687e-13 44.4807 4.92333 -15.2857 0 -32.4 -2 28.076 -46.1604 -18.8606 -2.27374e-13 -25.65 2 52.5064 -69.72 39.6789 -0.5 -1.5 2.65 -58.8629 5.86169 57.5376 0 -3.8 3.7 -0.267198 22.8324 0.0143183 -1.13687e-13 -3 2.7 -0.0211202 15.6433 0.0235903 -2.27374e-13 -1.9 1.6 -3.18055e-15 1.59028e-15 -0 -1.13687e-13 -8.3 1.9 -70.1675 -7.53864 -3.6207 0 -4.5 5.68434e-14 -15.0229 -0.00148627 -0.00169688 0 -3.4 -5.68434e-14 -12.5192 -0.00160337 0.000118915 -0.25 -2.2 0.4 -3.18055e-15 1.59028e-15 -0 -3.41061e-13 -8.3 1 -62.0069 -4.39592 -0.194005 -2.27374e-13 -4.65 0 -0.613095 -0.000919686 0.00183354 3.41061e-13 -3.3 0 10.1969 -0.00125884 -0.00281662 -0.5 -2.15 -0.8 -3.18055e-15 1.59028e-15 -0 1.13687e-13 -7.75 -0.2 -76.1224 -3.84936 3.18314 -2.27374e-13 -3.8 2.84217e-14 -1.10122 3.18055e-15 -0 0 -3.4 8.52651e-14 -90.0002 0.00165684 0.000689645 -0.75 -1.75 -1.85 -3.18055e-15 1.59028e-15 -0 0 -7.15 -1 -89.7237 0.146354 16.0693 -1.13687e-13 -3 -5.68434e-14 3.1806e-15 0.000805156 -3.18055e-15 -1.13687e-13 -2.35 2.84217e-14 6.36088e-15 0.00416474 3.18055e-15 -5 17 0 -8.45039 -2.10955 6.53466 -6.45 0 0 -0.916006 -0.33454 -2.07364 -6.45 1.13687e-13 3.41061e-13 -50.6982 -32.6192 8.64597 -1.13687e-13 -32.4 -2 32.1724 -71.5174 2.07879 0 -25.65 2 28.3283 0.64214 -4.98641 0.5 -1.5 2.65 -64.9555 15.9201 -81.2578 -4.54747e-13 -3.8 3.7 0.0915509 -0.0541949 -0.00518521 -2.27374e-13 -3 2.7 -0.00913912 26.7364 -0.0226347 0 -1.9 1.6 1.11319e-14 3.18055e-15 3.18055e-15 0 -8.3 1.9 0.854552 -7.40383 -0.0154604 0 -4.5 -1.13687e-13 2.50593 0.0156205 -0.0888889 0 -3.4 0 2.20608 0.00819045 -0.0785066 0.25 -2.2 0.4 1.11319e-14 3.18055e-15 3.18055e-15 -1.13687e-13 -8.3 1 2.41283 -7.60895 0.00922048 0 -4.65 0 72.4742 -0.114699 -0.0418917 0 -3.3 1.13687e-13 55.6928 -0.131067 0.0956538 0.5 -2.15 -0.8 1.11319e-14 3.18055e-15 3.18055e-15 0 -7.75 -0.2 5.98348 -2.21802 -0.106241 1.13687e-13 -3.8 0 70.5911 0.0106501 0.00488981 1.13687e-13 -3.4 -2.27374e-13 52.6882 0.01123 -0.00541235 0.75 -1.75 -1.85 1.11319e-14 3.18055e-15 3.18055e-15 -1.13687e-13 -7.15 -1 32.0794 -0.167415 -1.4457 1.13687e-13 -3 0 17.2861 0.0352978 0.0153156 1.13687e-13 -2.35 -2.27374e-13 14.0437 0.0256276 0.00976098 8 -5.68434e-14 0 -0.69422 -36.5857 -44.6656 0 -45 -1 0.265233 21.7033 -1.8939 -2.27374e-13 -41 -2 -9.93896 -7.16626 23.5147 0 -7.5 12.5 -4.96962e-17 5.46658e-16 -3.18055e-15 0 -1.77636e-15 4 13.9792 0.722349 94.2428 -8 2.84217e-14 1.13687e-13 -11.0016 -18.3545 -58.861 4.54747e-13 -45 -1 -0.618482 19.033 5.23638 0 -41 -2 7.07349 -8.85954 25.5991 0 -7.5 12.5 1.94126e-19 -1.45594e-19 4.77083e-15 -2.27374e-13 6.93889e-18 4 -5.43257 12.0098 50.8542 
-208.871 91.0982 1172.93 -12.9566 -13.5488 127.768 -1.13687e-13 8 2.27374e-13 2.04997 23.4586 14.3772 -1.13687e-13 8 -1.13687e-13 0.216854 9.7283 2.52233 1.13687e-13 8 0 0.161808 4.87252 1.26631 1.13687e-13 8 0 0.161397 4.85356 1.26145 1.13687e-13 17 1.13687e-13 2.22287 -0.882361 2.02589 0 10.8 2.27374e-13 5.2368 -1.93528 4.78124 5 17 0 -18.2828 -5.20098 17.1839 6.45 1.13687e-13 0 -1.47732 0.258085 2.11663 6.45 1.13687e-13 0 44.3569 4.87128 -15.4299 -1.13687e-13 -32.4 -2 28.0191 -46.0967 -18.933 0 -25.65 2 52.6476 -69.6698 39.7738 -0.5 -1.5 2.65 -58.7918 5.83666 57.5284 0 -3.8 3.7 -0.267173 22.8643 0.0142462 0 -3 2.7 -0.021068 15.6594 0.023519 -3.41061e-13 -1.9 1.6 9.54166e-15 -4.77083e-15 6.36111e-15 0 -8.3 1.9 -70.1611 -7.50938 -3.60018 0 -4.5 5.68434e-14 -15.0871 -0.00144486 -0.00165066 0 -3.4 0 -12.5643 -0.00156362 0.000165588 -0.25 -2.2 0.4 9.54166e-15 -4.77083e-15 6.36111e-15 -3.41061e-13 -8.3 1 -62.0767 -4.40328 -0.197542 -2.27374e-13 -4.65 -5.68434e-14 -0.613095 -0.000921864 0.00183211 2.27374e-13 -3.3 5.68434e-14 10.1902 -0.00128592 -0.00280013 -0.5 -2.15 -0.8 9.54166e-15 -4.77083e-15 6.36111e-15 -1.13687e-13 -7.75 -0.2 -76.1688 -3.85691 3.18281 -3.41061e-13 -3.8 8.52651e-14 -1.10122 3.18055e-15 -0 1.13687e-13 -3.4 -2.84217e-14 -90.0002 0.00165684 0.000689645 -0.75 -1.75 -1.85 9.54166e-15 -4.77083e-15 6.36111e-15 -1.13687e-13 -7.15 -1 -89.7302 0.142493 16.0806 0 -3 -5.68434e-14 6.36118e-15 0.000805156 -4.77083e-15 0 -2.35 2.84217e-14 -1.15595e-19 0.00416474 1.59028e-15 -5 17 1.13687e-13 -8.50782 -2.1212 6.57291 -6.45 1.13687e-13 1.13687e-13 -0.918439 -0.334394 -2.07385 -6.45 0 3.41061e-13 -50.4856 -32.9588 8.66685 1.13687e-13 -32.4 -2 31.1221 -71.2766 1.01839 5.68434e-14 -25.65 2 29.2301 0.52888 -5.04575 0.5 -1.5 2.65 -65.4732 15.6991 -81.6331 -2.27374e-13 -3.8 3.7 0.0987609 -0.304143 -0.00508427 -2.27374e-13 -3 2.7 -0.00280921 26.2531 -0.0154723 0 -1.9 1.6 4.77083e-15 9.54166e-15 -1.27222e-14 1.13687e-13 -8.3 1.9 1.00413 -8.22271 0.0131731 0 -4.5 0 0.924142 0.0028764 -0.0308143 0 -3.4 0 0.854516 0.00188043 -0.0285748 0.25 -2.2 0.4 4.77083e-15 9.54166e-15 -1.27222e-14 -1.13687e-13 -8.3 1 1.56766 -8.42247 -0.00206918 0 -4.65 0 71.125 -0.0827716 -0.0261795 -1.13687e-13 -3.3 0 53.8694 -0.0915662 0.0705036 0.5 -2.15 -0.8 4.77083e-15 9.54166e-15 -1.27222e-14 1.13687e-13 -7.75 -0.2 3.01641 -2.44675 -0.0408605 0 -3.8 1.13687e-13 71.7689 0.00358725 0.000445962 1.13687e-13 -3.4 -2.27374e-13 54.0534 0.00264029 -0.00364118 0.75 -1.75 -1.85 4.77083e-15 9.54166e-15 -1.27222e-14 -1.13687e-13 -7.15 -1 28.8156 -0.29377 -1.10272 0 -3 0 18.2169 0.0363739 0.0211013 1.13687e-13 -2.35 -1.13687e-13 14.6735 0.0271918 0.0100616 8 -5.68434e-14 0 -0.716521 -36.5733 -44.6902 0 -45 -1 0.266696 21.746 -1.89552 0 -41 -2 -9.94083 -7.18283 23.5499 2.27374e-13 -7.5 12.5 -4.96962e-17 2.98177e-16 3.18055e-15 2.27374e-13 0 4 13.9982 0.689834 94.2491 -8 -5.68434e-14 2.27374e-13 -11.0032 -18.3255 -58.8773 0 -45 -1 -0.613755 19.0155 5.22592 -2.27374e-13 -41 -2 7.08671 -8.84081 25.6081 4.54747e-13 -7.5 12.5 5.38807e-36 -9.70628e-20 3.18055e-15 0 0 4 -5.44193 11.9994 50.8959 
-208.873 91.0973 1172.9 -12.9511 -13.5353 127.754 0 8 1.13687e-13 2.07485 23.4459 14.3677 0 8 1.13687e-13 0.230024 9.7241 2.52291 1.13687e-13 8 1.13687e-13 0.168349 4.8705 1.26739 -1.13687e-13 8 0 0.167921 4.85175 1.26252 5.68434e-14 17 -1.13687e-13 2.20947 -0.88425 2.01374 -1.13687e-13 10.8 2.27374e-13 5.20534 -1.94116 4.7527 5 17 0 -18.2322 -5.17365 17.2836 6.45 -1.13687e-13 0 -1.47202 0.258658 2.11156 6.45 0 -1.13687e-13 44.2337 4.7851 -15.5813 -1.13687e-13 -32.4 -2 27.9145 -46.0238 -19.0479 -2.27374e-13 -25.65 2 52.7863 -69.6185 39.8675 -0.5 -1.5 2.65 -58.7335 5.82984 57.5121 0 -3.8 3.7 -0.26714 22.864 0.0141707 0 -3 2.7 -0.0210296 15.7086 0.0234516 -1.13687e-13 -1.9 1.6 6.36111e-15 -3.18055e-15 -0 0 -8.3 1.9 -70.1556 -7.49386 -3.58924 0 -4.5 1.13687e-13 -15.1912 -0.00140317 -0.0016047 0 -3.4 5.68434e-14 -12.6371 -0.00152369 0.000211922 -0.25 -2.2 0.4 6.36111e-15 -3.18055e-15 -0 -4.54747e-13 -8.3 1 -62.116 -4.40877 -0.199177 -2.27374e-13 -4.65 -5.68434e-14 -0.613095 -0.000924041 0.00183062 2.27374e-13 -3.3 0 10.1715 -0.00131322 -0.00278385 -0.5 -2.15 -0.8 6.36111e-15 -3.18055e-15 -0 0 -7.75 -0.2 -76.1931 -3.85632 3.1878 -2.27374e-13 -3.8 2.84217e-14 -1.10122 0 -0 0 -3.4 0 -90.0002 0.00165684 0.000689645 -0.75 -1.75 -1.85 6.36111e-15 -3.18055e-15 -0 0 -7.15 -1 -89.7333 0.140107 16.0878 0 -3 -1.13687e-13 -9.54164e-15 0.000805156 -1.59028e-15 0 -2.35 2.84217e-14 -6.36146e-15 0.00416474 4.77083e-15 -5 17 0 -8.57323 -2.12893 6.61508 -6.45 1.13687e-13 0 -0.920838 -0.33425 -2.07402 -6.45 0 3.41061e-13 -50.2913 -33.2865 8.69744 0 -32.4 -2 30.1895 -71.0318 0.0347577 -5.68434e-14 -25.65 2 29.9288 0.459154 -5.00263 0.5 -1.5 2.65 -65.9051 15.6151 -81.886 -2.27374e-13 -3.8 3.7 0.0988404 -0.407235 -0.00498605 -2.27374e-13 -3 2.7 0.003259 25.7444 -0.00943251 -1.13687e-13 -1.9 1.6 9.54166e-15 3.18055e-15 6.36111e-15 0 -8.3 1.9 1.13615 -8.81051 0.0352582 1.13687e-13 -4.5 0 0.098686 -5.24333e-06 -0.00304421 -1.13687e-13 -3.4 0 0.0976273 0.000993119 -0.00301646 0.25 -2.2 0.4 9.54166e-15 3.18055e-15 6.36111e-15 1.13687e-13 -8.3 1 1.29629 -8.91362 -0.00228163 0 -4.65 0 69.7559 -0.0418771 -0.0100554 0 -3.3 0 51.9389 -0.0422891 0.0351107 0.5 -2.15 -0.8 9.54166e-15 3.18055e-15 6.36111e-15 1.13687e-13 -7.75 -0.2 1.05656 -2.55997 -0.0158231 0 -3.8 1.13687e-13 72.5504 0.00396481 0.00442963 -1.13687e-13 -3.4 -1.13687e-13 55.0406 0.00303996 -0.00405672 0.75 -1.75 -1.85 9.54166e-15 3.18055e-15 6.36111e-15 1.13687e-13 -7.15 -1 26.8631 -0.514219 -0.875902 0 -3 -1.13687e-13 19.2384 0.034499 0.0266174 1.13687e-13 -2.35 -1.13687e-13 15.3496 0.0268843 0.0103304 8 0 0 -0.749655 -36.5611 -44.7287 -2.27374e-13 -45 -1 0.266443 21.7917 -1.89218 -2.27374e-13 -41 -2 -9.94028 -7.20502 23.5897 0 -7.5 12.5 -4.96962e-17 3.47873e-16 -6.36111e-15 1.13687e-13 0 4 14.0146 0.659175 94.2551 -8 0 1.13687e-13 -11.0114 -18.2988 -58.8935 2.27374e-13 -45 -1 -0.609143 19.0005 5.21517 -2.27374e-13 -41 -2 7.09876 -8.82483 25.6146 0 -7.5 12.5 -4.31046e-35 3.88251e-19 6.36111e-15 -2.27374e-13 0 4 -5.45459 11.989 50.9376 
